#!OML:ASF F:\VICON\USERDATA\INSTALL\rory3\rory3.ASF
:FULLY-SPECIFIED
:DEGREES
306
root 0.251663 17.8757 28.2849 -3.42244 -1.4647 -6.80415
lowerback 10.1811 1.02702 6.2899
upperback 1.02934 2.1973 2.59261
thorax -4.50497 0.990436 -1.12999
lowerneck -14.6927 -3.02651 -1.94382
upperneck 19.832 -3.83839 0.51841
head 8.66176 -1.89784 0.0476546
rclavicle 9.87711e-015 -2.78299e-015
rhumerus -23.5165 -10.6635 -82.1242
rradius 29.3605
rwrist -0.331131
rhand -19.2707 22.5744
rfingers 7.12502
rthumb 7.04388 -7.28836
lclavicle 9.87711e-015 -2.78299e-015
lhumerus -32.067 7.04124 80.4348
lradius 24.8616
lwrist 3.73501
lhand -29.6403 25.4008
lfingers 7.12502
lthumb -2.9701 55.3598
rfemur -2.09043 5.87838 35.3316
rtibia 29.5351
rfoot -18.3658 -6.84488
rtoes 10.8351
lfemur -28.3253 4.34605 -12.5744
ltibia 54.5489
lfoot -6.85332 0.121035
ltoes -4.96258
307
root 0.26158 17.8785 28.4648 -3.25406 -1.61495 -6.6397
lowerback 9.99687 1.11112 6.22508
upperback 1.02002 2.282 2.50687
thorax -4.40517 1.03546 -1.18973
lowerneck -14.8206 -3.04416 -1.99945
upperneck 19.9476 -3.85954 0.570094
head 8.72705 -1.90548 0.0686501
rclavicle 2.83144e-014 3.73715e-014
rhumerus -23.1913 -10.0344 -82.2254
rradius 30.0035
rwrist -0.59514
rhand -19.0949 22.8053
rfingers 7.12502
rthumb 7.21356 -7.05176
lclavicle 2.83144e-014 3.73715e-014
lhumerus -32.4783 7.59158 80.1395
lradius 24.6696
lwrist 3.80287
lhand -30.017 24.9726
lfingers 7.12502
lthumb -3.33391 54.9263
rfemur -1.46326 5.89296 35.1367
rtibia 29.2771
rfoot -18.7435 -6.80772
rtoes 10.9672
lfemur -28.5742 4.10869 -12.7877
ltibia 52.0361
lfoot -7.04487 0.890932
ltoes -5.62432
308
root 0.26856 17.861 28.6381 -2.98301 -1.75812 -6.53464
lowerback 9.86268 1.20339 6.10767
upperback 0.94002 2.38258 2.45814
thorax -4.41026 1.08546 -1.18549
lowerneck -14.8916 -3.06158 -1.95209
upperneck 19.9441 -3.88156 0.516445
head 8.73687 -1.91756 0.0390163
rclavicle -1.86733e-014 -4.17448e-014
rhumerus -22.7035 -9.22081 -82.3662
rradius 30.3692
rwrist -1.14779
rhand -18.8572 23.26
rfingers 7.12502
rthumb 7.44294 -6.58904
lclavicle -1.86733e-014 -4.17448e-014
lhumerus -32.9292 8.02652 79.8191
lradius 24.3652
lwrist 3.70388
lhand -30.5373 21.7822
lfingers 7.12502
lthumb -3.83634 51.7274
rfemur -0.971855 5.99381 35.0471
rtibia 28.9848
rfoot -19.0809 -6.92742
rtoes 11.1254
lfemur -28.7817 3.70977 -12.8623
ltibia 49.373
lfoot -7.16097 1.82202
ltoes -5.96149
309
root 0.268799 17.8306 28.8024 -2.7893 -2.06077 -6.80285
lowerback 9.84287 1.31734 6.27774
upperback 0.981553 2.55055 2.51673
thorax -4.34044 1.16828 -1.23928
lowerneck -15.2637 -3.07821 -1.92667
upperneck 19.981 -3.91953 0.587724
head 8.81878 -1.92367 0.0479134
rclavicle -1.88348e-014 -1.80894e-014
rhumerus -21.8547 -8.56805 -82.5387
rradius 30.5057
rwrist -1.50483
rhand -18.7291 23.5077
rfingers 7.12502
rthumb 7.56668 -6.33699
lclavicle -1.88348e-014 -1.80894e-014
lhumerus -33.0148 8.74306 79.4412
lradius 23.8805
lwrist 3.37679
lhand -31.1001 18.5158
lfingers 7.12502
lthumb -4.3798 48.4505
rfemur -0.39554 6.44608 35.4858
rtibia 28.6052
rfoot -19.2442 -7.31375
rtoes 10.5543
lfemur -28.9129 3.43457 -12.4139
ltibia 46.6235
lfoot -6.39372 2.39758
ltoes -2.35425
310
root 0.274719 17.8191 28.9677 -2.57874 -2.2969 -7.27072
lowerback 9.68226 1.42424 6.75162
upperback 0.998068 2.73177 2.60931
thorax -4.20446 1.25437 -1.42309
lowerneck -14.8731 -3.12827 -1.92401
upperneck 19.4501 -4.00981 0.677626
head 8.56996 -1.96014 0.0779706
rclavicle -3.6887e-014 -2.18663e-014
rhumerus -21.2048 -8.23 -82.5925
rradius 30.8101
rwrist -1.536
rhand -18.6993 23.83
rfingers 7.12502
rthumb 7.59535 -6.0136
lclavicle -3.6887e-014 -2.18663e-014
lhumerus -33.1011 9.30979 79.102
lradius 23.3255
lwrist 3.06377
lhand -30.8563 17.8298
lfingers 7.12502
lthumb -4.14434 47.7693
rfemur 0.198836 6.65481 36.0636
rtibia 28.2101
rfoot -19.4064 -7.52242
rtoes 10.0459
lfemur -29.1675 3.20171 -11.8013
ltibia 43.805
lfoot -5.65317 2.71229
ltoes -0.439338
311
root 0.286226 17.8183 29.1441 -2.31102 -2.44457 -7.27429
lowerback 9.437 1.554 6.85351
upperback 0.938209 2.89348 2.56319
thorax -4.11115 1.33411 -1.53957
lowerneck -14.5922 -3.14165 -1.94313
upperneck 19.2038 -4.04898 0.785413
head 8.43911 -1.9711 0.119396
rclavicle 3.81418e-015 9.93923e-016
rhumerus -20.7897 -8.1352 -82.5113
rradius 31.2162
rwrist -1.485
rhand -18.5836 24.1484
rfingers 7.12502
rthumb 7.70709 -5.69111
lclavicle 3.81418e-015 9.93923e-016
lhumerus -33.3484 9.76942 78.7723
lradius 22.8379
lwrist 2.58488
lhand -30.1635 17.9473
lfingers 7.12502
lthumb -3.47536 47.8987
rfemur 0.819336 6.66676 36.0369
rtibia 27.7667
rfoot -19.8007 -7.521
rtoes 9.86786
lfemur -29.2932 2.76924 -11.7109
ltibia 40.885
lfoot -6.10326 3.2515
ltoes -3.45296
312
root 0.297427 17.8055 29.3228 -2.13955 -2.50094 -7.17449
lowerback 9.39142 1.61925 6.7917
upperback 0.839602 2.97294 2.50018
thorax -4.18292 1.36987 -1.58056
lowerneck -14.8268 -3.09795 -1.84962
upperneck 19.5384 -4.00703 0.765561
head 8.59172 -1.94383 0.0956428
rclavicle -2.26987e-014 5.96354e-015
rhumerus -20.4612 -7.68893 -82.5059
rradius 31.5082
rwrist -1.70896
rhand -18.8341 24.4573
rfingers 7.12502
rthumb 7.46531 -5.39093
lclavicle -2.26987e-014 5.96354e-015
lhumerus -33.7041 9.96225 78.5859
lradius 22.4901
lwrist 2.59216
lhand -30.2847 18.4982
lfingers 7.12502
lthumb -3.59242 48.4477
rfemur 1.58624 6.61192 35.9342
rtibia 27.2424
rfoot -20.1812 -7.57613
rtoes 9.25733
lfemur -29.1907 2.04743 -11.6719
ltibia 37.8835
lfoot -6.1113 4.04281
ltoes -4.92605
313
root 0.310869 17.7873 29.4941 -1.84568 -2.53941 -7.23607
lowerback 9.25649 1.66551 6.95007
upperback 0.694832 3.04481 2.44402
thorax -4.24293 1.39738 -1.73294
lowerneck -14.7621 -3.11218 -1.70306
upperneck 19.5625 -4.0352 0.636504
head 8.58228 -1.96007 0.0257873
rclavicle -1.44243e-014 -9.34288e-015
rhumerus -20.1553 -7.30319 -82.5425
rradius 31.76
rwrist -1.95174
rhand -18.9925 24.5039
rfingers 7.12502
rthumb 7.3124 -5.34978
lclavicle -1.44243e-014 -9.34288e-015
lhumerus -33.9737 9.72004 78.6221
lradius 22.0072
lwrist 3.62121
lhand -31.6261 17.4591
lfingers 7.12502
lthumb -4.88769 47.3827
rfemur 2.14472 6.51438 35.9806
rtibia 26.7842
rfoot -20.3977 -7.58424
rtoes 8.95773
lfemur -29.1616 1.19291 -11.3682
ltibia 34.7123
lfoot -6.10166 4.66248
ltoes -5.79991
314
root 0.317175 17.7755 29.6639 -1.58146 -2.78501 -7.40026
lowerback 9.16918 1.77701 7.08278
upperback 0.66616 3.20075 2.46527
thorax -4.20612 1.47271 -1.79957
lowerneck -15.0011 -3.14999 -1.74702
upperneck 19.7046 -4.09138 0.711928
head 8.67742 -1.97974 0.0464146
rclavicle -2.24254e-014 1.07344e-014
rhumerus -19.6363 -7.00777 -82.5568
rradius 32.05
rwrist -2.1199
rhand -18.9364 24.7729
rfingers 7.12502
rthumb 7.36658 -5.0788
lclavicle -2.24254e-014 1.07344e-014
lhumerus -34.0185 9.70336 78.7163
lradius 21.322
lwrist 4.74523
lhand -33.677 13.1946
lfingers 7.12502
lthumb -6.86777 43.0632
rfemur 2.69056 6.66225 36.1977
rtibia 26.3971
rfoot -20.5528 -7.69963
rtoes 8.84368
lfemur -28.9817 0.478971 -10.8463
ltibia 31.4031
lfoot -6.10896 5.25845
ltoes -7.04681
315
root 0.322898 17.7623 29.8453 -1.37276 -3.00198 -7.31216
lowerback 9.03182 1.88589 6.9618
upperback 0.679445 3.31632 2.40469
thorax -4.10882 1.53519 -1.80265
lowerneck -15.2907 -3.14702 -1.77388
upperneck 19.8322 -4.12189 0.909996
head 8.77922 -1.9725 0.107974
rclavicle -5.80203e-015 6.95746e-015
rhumerus -19.2252 -7.07009 -82.5824
rradius 32.6027
rwrist -2.01707
rhand -18.7395 24.5039
rfingers 7.12502
rthumb 7.55663 -5.34112
lclavicle -5.80203e-015 6.95746e-015
lhumerus -34.2749 9.99305 78.5086
lradius 21.0905
lwrist 4.60897
lhand -33.9929 12.5291
lfingers 7.12502
lthumb -7.17267 42.3876
rfemur 3.3386 6.72574 36.122
rtibia 25.9788
rfoot -20.7242 -7.84639
rtoes 8.68962
lfemur -28.6808 -0.480605 -10.5481
ltibia 28.0457
lfoot -6.19538 6.19544
ltoes -8.00848
316
root 0.335125 17.7509 30.0345 -1.19057 -3.06064 -7.17617
lowerback 8.64722 1.94759 6.87847
upperback 0.789664 3.34471 2.34779
thorax -3.77667 1.56379 -1.79907
lowerneck -15.4081 -3.15913 -1.88705
upperneck 19.687 -4.14019 1.06478
head 8.75748 -1.97286 0.175831
rclavicle -3.99806e-014 -1.05356e-014
rhumerus -18.7013 -7.2162 -82.5413
rradius 32.9789
rwrist -1.7758
rhand -18.7155 24.3956
rfingers 7.12502
rthumb 7.57972 -5.44859
lclavicle -3.99806e-014 -1.05356e-014
lhumerus -34.4072 10.6515 78.0903
lradius 20.9188
lwrist 3.10541
lhand -31.8816 21.3929
lfingers 7.12502
lthumb -5.13444 51.3106
rfemur 4.07589 6.52174 35.9199
rtibia 25.4725
rfoot -20.8131 -7.84181
rtoes 8.76956
lfemur -28.352 -1.83822 -10.2139
ltibia 24.7676
lfoot -6.34966 7.1685
ltoes -6.60137
317
root 0.345048 17.7326 30.217 -1.07571 -3.23967 -7.48415
lowerback 8.50119 2.00331 7.14594
upperback 0.86474 3.42885 2.44258
thorax -3.60024 1.60922 -1.84887
lowerneck -15.4924 -3.14401 -1.87136
upperneck 19.5057 -4.11185 1.03668
head 8.7095 -1.96167 0.167281
rclavicle 4.67889e-014 1.78906e-014
rhumerus -18.1791 -7.10385 -82.5441
rradius 33.1872
rwrist -2.02707
rhand -18.9374 24.1602
rfingers 7.12502
rthumb 7.36556 -5.6916
lclavicle 4.67889e-014 1.78906e-014
lhumerus -34.5073 11.5662 77.631
lradius 20.4267
lwrist 1.82519
lhand -29.138 33.1415
lfingers 7.12502
lthumb -2.48501 63.1067
rfemur 4.88534 6.55571 36.2734
rtibia 24.9554
rfoot -20.8409 -7.9619
rtoes 8.52102
lfemur -27.9821 -3.06967 -9.28913
ltibia 21.6347
lfoot -6.55195 7.94232
ltoes -5.10041
318
root 0.353529 17.7076 30.3993 -0.996327 -3.68682 -8.13019
lowerback 8.6033 2.1335 7.72456
upperback 0.775606 3.67943 2.63316
thorax -3.7076 1.71931 -2.00325
lowerneck -15.1383 -3.15772 -2.00885
upperneck 19.3296 -4.11906 1.12128
head 8.59065 -1.96948 0.224551
rclavicle 4.46644e-014 -7.25564e-015
rhumerus -17.9471 -7.04448 -82.4743
rradius 33.3062
rwrist -2.26336
rhand -19.1393 24.1376
rfingers 7.12502
rthumb 7.17066 -5.72094
lclavicle 4.46644e-014 -7.25564e-015
lhumerus -34.9233 12.016 77.351
lradius 19.724
lwrist 1.41924
lhand -28.9846 37.4233
lfingers 7.12502
lthumb -2.33679 67.3903
rfemur 5.78124 6.73358 36.9987
rtibia 24.5223
rfoot -20.9475 -8.20778
rtoes 7.35996
lfemur -27.5511 -4.04276 -7.94925
ltibia 18.729
lfoot -6.50193 8.77544
ltoes -6.12117
319
root 0.368648 17.683 30.5894 -0.945367 -3.95803 -8.29487
lowerback 8.65184 2.18747 7.92721
upperback 0.724631 3.77869 2.63313
thorax -3.76675 1.76157 -2.12892
lowerneck -14.994 -3.11306 -1.94495
upperneck 19.3702 -4.07615 1.11962
head 8.57607 -1.94559 0.220632
rclavicle -2.98177e-016 -9.93923e-017
rhumerus -17.5318 -6.85487 -82.5448
rradius 33.0992
rwrist -2.56745
rhand -19.2335 24.5545
rfingers 7.12502
rthumb 7.07976 -5.30709
lclavicle -2.98177e-016 -9.93923e-017
lhumerus -35.3178 12.5169 76.9447
lradius 19.2156
lwrist 0.968808
lhand -29.2309 36.6294
lfingers 7.12502
lthumb -2.57475 66.5936
rfemur 6.64078 6.71758 37.1169
rtibia 24.3149
rfoot -21.1933 -8.11624
rtoes 5.35089
lfemur -27.0261 -5.29789 -7.16569
ltibia 16.007
lfoot -6.39319 9.84867
ltoes -6.92139
320
root 0.384486 17.6574 30.773 -0.736168 -3.98566 -7.8424
lowerback 8.4807 2.20243 7.47103
upperback 0.627314 3.73804 2.46893
thorax -3.79388 1.74522 -2.03796
lowerneck -14.9939 -3.05751 -1.74475
upperneck 19.5259 -4.03583 1.05021
head 8.62215 -1.91844 0.168032
rclavicle 5.72127e-015 -2.13694e-014
rhumerus -17.2614 -6.90428 -82.6116
rradius 32.9301
rwrist -2.64736
rhand -19.3658 25.2045
rfingers 7.12502
rthumb 6.95203 -4.66131
lclavicle 5.72127e-015 -2.13694e-014
lhumerus -35.7026 12.8401 76.6967
lradius 18.8485
lwrist 1.24688
lhand -30.2235 34.3368
lfingers 7.12502
lthumb -3.53325 64.2872
rfemur 7.09779 6.69548 36.5185
rtibia 24.3432
rfoot -21.5418 -7.62257
rtoes 3.70468
lfemur -26.6875 -6.61837 -7.11438
ltibia 13.4299
lfoot -6.2287 10.8213
ltoes -6.49067
